<?xml version="1.0" encoding="UTF-8" standalone="no"?>
<!-- Created with Inkscape (http://www.inkscape.org/) -->

<svg
   xmlns:dc="http://purl.org/dc/elements/1.1/"
   xmlns:cc="http://creativecommons.org/ns#"
   xmlns:rdf="http://www.w3.org/1999/02/22-rdf-syntax-ns#"
   xmlns:svg="http://www.w3.org/2000/svg"
   xmlns="http://www.w3.org/2000/svg"
   xmlns:sodipodi="http://sodipodi.sourceforge.net/DTD/sodipodi-0.dtd"
   xmlns:inkscape="http://www.inkscape.org/namespaces/inkscape"
   width="423.86893mm"
   height="285.61713mm"
   viewBox="0 0 423.86893 285.61713"
   version="1.1"
   id="svg851"
   inkscape:version="0.92.2 (5c3e80d, 2017-08-06)"
   sodipodi:docname="apple-logo.svg">
  <defs
     id="defs845" />
  <sodipodi:namedview
     id="base"
     pagecolor="#ffffff"
     bordercolor="#666666"
     borderopacity="1.0"
     inkscape:pageopacity="0.0"
     inkscape:pageshadow="2"
     inkscape:zoom="0.35"
     inkscape:cx="792.38906"
     inkscape:cy="526.31852"
     inkscape:document-units="mm"
     inkscape:current-layer="layer1"
     showgrid="false"
     fit-margin-top="0"
     fit-margin-left="0"
     fit-margin-right="0"
     fit-margin-bottom="0"
     inkscape:window-width="1600"
     inkscape:window-height="837"
     inkscape:window-x="-8"
     inkscape:window-y="-8"
     inkscape:window-maximized="1" />
  <metadata
     id="metadata848">
    <rdf:RDF>
      <cc:Work
         rdf:about="">
        <dc:format>image/svg+xml</dc:format>
        <dc:type
           rdf:resource="http://purl.org/dc/dcmitype/StillImage" />
        <dc:title></dc:title>
      </cc:Work>
    </rdf:RDF>
  </metadata>
  <g
     inkscape:label="Layer 1"
     inkscape:groupmode="layer"
     id="layer1"
     transform="translate(226.66187,-2.4713155)">
    <g
       transform="matrix(11.512792,0,0,11.512792,-11.174483,-111.47115)"
       id="Apple_2_"
       style="fill:#000000"
       inkscape:export-filename="C:\Users\suitedoalex\sites\apple-logo-15.png"
       inkscape:export-xdpi="6.8945045"
       inkscape:export-ydpi="6.8945045">
      <path
         inkscape:connector-curvature="0"
         style="fill:#000000"
         d="m 18.1,24.23 c -0.11,0.31 -0.22,0.6 -0.33,0.88 -0.29,0.66 -0.63,1.27 -1.02,1.84 -0.54,0.77 -0.98,1.3 -1.32,1.59 -0.52,0.48 -1.09,0.73 -1.69,0.74 -0.43,0 -0.95,-0.12 -1.56,-0.37 -0.61,-0.25 -1.17,-0.37 -1.68,-0.37 -0.54,0 -1.11,0.12 -1.73,0.37 C 8.15,29.16 7.66,29.29 7.28,29.3 6.7,29.32 6.13,29.07 5.55,28.54 5.18,28.22 4.72,27.67 4.17,26.89 3.58,26.06 3.09,25.1 2.71,24 2.3,22.81 2.1,21.66 2.1,20.55 c 0,-1.27 0.28,-2.37 0.83,-3.29 0.43,-0.74 1.01,-1.32 1.73,-1.75 0.72,-0.43 1.5,-0.65 2.34,-0.66 0.46,0 1.06,0.14 1.81,0.42 0.75,0.28 1.23,0.42 1.44,0.42 0.16,0 0.69,-0.17 1.59,-0.5 0.85,-0.31 1.57,-0.43 2.16,-0.38 1.6,0.13 2.8,0.76 3.6,1.89 -1.43,0.87 -2.14,2.08 -2.12,3.64 0.01,1.21 0.45,2.22 1.32,3.02 0.38,0.38 0.81,0.66 1.3,0.87 z M 14.08,10.31 c 0.01,0.13 0.02,0.25 0.02,0.38 0,0.95 -0.35,1.84 -1.04,2.66 -0.84,0.98 -1.85,1.54 -2.94,1.45 -0.01,-0.11 -0.02,-0.23 -0.02,-0.36 0,-0.91 0.4,-1.89 1.1,-2.69 0.35,-0.4 0.8,-0.74 1.34,-1.01 0.55,-0.26 1.06,-0.41 1.54,-0.43 z"
         id="path2" />
    </g>
    <g
       transform="matrix(11.512792,0,0,11.512792,-250.83873,-116.22557)"
       id="Apple_2_-1"
       style="fill:#b3b3b3"
       inkscape:export-filename="C:\Users\suitedoalex\sites\apple-logo-14.png"
       inkscape:export-xdpi="6.8945045"
       inkscape:export-ydpi="6.8945045">
      <path
         inkscape:connector-curvature="0"
         style="fill:#b3b3b3"
         d="m 18.1,24.23 c -0.11,0.31 -0.22,0.6 -0.33,0.88 -0.29,0.66 -0.63,1.27 -1.02,1.84 -0.54,0.77 -0.98,1.3 -1.32,1.59 -0.52,0.48 -1.09,0.73 -1.69,0.74 -0.43,0 -0.95,-0.12 -1.56,-0.37 -0.61,-0.25 -1.17,-0.37 -1.68,-0.37 -0.54,0 -1.11,0.12 -1.73,0.37 C 8.15,29.16 7.66,29.29 7.28,29.3 6.7,29.32 6.13,29.07 5.55,28.54 5.18,28.22 4.72,27.67 4.17,26.89 3.58,26.06 3.09,25.1 2.71,24 2.3,22.81 2.1,21.66 2.1,20.55 c 0,-1.27 0.28,-2.37 0.83,-3.29 0.43,-0.74 1.01,-1.32 1.73,-1.75 0.72,-0.43 1.5,-0.65 2.34,-0.66 0.46,0 1.06,0.14 1.81,0.42 0.75,0.28 1.23,0.42 1.44,0.42 0.16,0 0.69,-0.17 1.59,-0.5 0.85,-0.31 1.57,-0.43 2.16,-0.38 1.6,0.13 2.8,0.76 3.6,1.89 -1.43,0.87 -2.14,2.08 -2.12,3.64 0.01,1.21 0.45,2.22 1.32,3.02 0.38,0.38 0.81,0.66 1.3,0.87 z M 14.08,10.31 c 0.01,0.13 0.02,0.25 0.02,0.38 0,0.95 -0.35,1.84 -1.04,2.66 -0.84,0.98 -1.85,1.54 -2.94,1.45 -0.01,-0.11 -0.02,-0.23 -0.02,-0.36 0,-0.91 0.4,-1.89 1.1,-2.69 0.35,-0.4 0.8,-0.74 1.34,-1.01 0.55,-0.26 1.06,-0.41 1.54,-0.43 z"
         id="path2-8" />
    </g>
    <text
       xml:space="preserve"
       style="font-style:normal;font-weight:normal;font-size:11.28888893px;line-height:1.25;font-family:sans-serif;letter-spacing:0px;word-spacing:0px;fill:#000000;fill-opacity:1;stroke:none;stroke-width:0.26458332"
       x="-63.499996"
       y="287.92859"
       id="text1427"><tspan
         sodipodi:role="line"
         id="tspan1425"
         x="-63.499996"
         y="287.92859"
         style="stroke-width:0.26458332">LOGODOWNLOAD.ORG</tspan></text>
  </g>
</svg>
